<svg width="48" height="48" fill="none" xmlns="http://www.w3.org/2000/svg"><path d="M34.5 16.5h-5.003l4.167-4.764a3.373 3.373 0 00.836-2.222v-.139A3.38 3.38 0 0031.125 6a3.38 3.38 0 00-3.375 3.375V10.5h1.5V9.375c0-1.034.84-1.875 1.875-1.875C32.159 7.5 33 8.34 33 9.375v.139c0 .454-.165.892-.464 1.234l-4.786 5.47V18h6.75v-1.5zm6 1.5H42v-2.25h1.5v-1.5H42V6h-1.964L36 14.073v1.677h4.5V18zm-2.911-3.75L40.5 8.427v5.823h-2.911z" fill="#082433"/><path d="M37.804 24.47c5.393-1.174 9.446-5.98 9.446-11.72 0-6.617-5.383-12-12-12-5.74 0-10.546 4.053-11.72 9.446a18.778 18.778 0 00-4.03-.446C9.161 9.75.75 18.161.75 28.5S9.161 47.25 19.5 47.25s18.75-8.411 18.75-18.75a18.78 18.78 0 00-.446-4.03zM35.25 2.25c5.79 0 10.5 4.71 10.5 10.5s-4.71 10.5-10.5 10.5-10.5-4.71-10.5-10.5 4.71-10.5 10.5-10.5zm-1.53 25.5h-1.47v1.5h1.462a14.173 14.173 0 01-3.636 8.766l-1.03-1.031-1.061 1.06 1.031 1.032a14.17 14.17 0 01-8.766 3.635V41.25h-1.5v1.462a14.173 14.173 0 01-8.766-3.636l1.031-1.03-1.06-1.061-1.031 1.031a14.169 14.169 0 01-3.636-8.766H6.75v-1.5H5.288a14.173 14.173 0 013.636-8.766l1.03 1.031 1.061-1.06-1.031-1.031a14.169 14.169 0 018.766-3.636v1.462h1.5v-1.47a14.2 14.2 0 013.191.54 12.015 12.015 0 009.74 9.739c.3 1.044.482 2.113.54 3.191zm-14.22 18c-9.512 0-17.25-7.738-17.25-17.25S9.988 11.25 19.5 11.25c1.28 0 2.555.15 3.804.433-.031.352-.054.707-.054 1.067 0 .157.017.31.023.466a15.676 15.676 0 00-3.773-.466c-8.684 0-15.75 7.066-15.75 15.75 0 8.684 7.066 15.75 15.75 15.75 8.684 0 15.75-7.066 15.75-15.75 0-1.271-.159-2.536-.466-3.773.156.006.31.023.466.023.36 0 .715-.023 1.067-.054.282 1.249.433 2.524.433 3.804 0 9.512-7.738 17.25-17.25 17.25z" fill="#082433"/><path d="M21.75 28.5c0-.977-.63-1.802-1.5-2.112V17.25h-1.5v9.138c-.87.31-1.5 1.135-1.5 2.112 0 1.24 1.01 2.25 2.25 2.25.346 0 .67-.085.964-.226l5.256 5.256 1.06-1.06-5.256-5.256c.141-.293.226-.617.226-.964zm-3 0a.75.75 0 111.5 0 .75.75 0 01-1.5 0zM42 26.25c-1.24 0-2.25 1.01-2.25 2.25 0 .938.578 1.743 1.397 2.08a21.73 21.73 0 01-6.114 13.145l1.07 1.05a23.231 23.231 0 006.544-14.131A2.244 2.244 0 0044.25 28.5c0-1.24-1.01-2.25-2.25-2.25zm0 3a.75.75 0 110-1.5.75.75 0 010 1.5zM4.712 12.55a21.77 21.77 0 0112.712-5.685A2.253 2.253 0 0019.5 8.25c1.24 0 2.25-1.01 2.25-2.25s-1.01-2.25-2.25-2.25a2.245 2.245 0 00-2.144 1.603A23.29 23.29 0 003.693 11.45l1.02 1.1zM19.5 5.25a.75.75 0 110 1.5.75.75 0 010-1.5z" fill="#082433"/></svg>