<svg width="23" height="23" fill="none" xmlns="http://www.w3.org/2000/svg"><path d="M21.083 2.3h-1.916v-.767a1.534 1.534 0 00-3.067 0V2.3h-3.067v-.767a1.533 1.533 0 10-3.066 0V2.3H6.9v-.767a1.533 1.533 0 00-3.067 0V2.3H1.917A1.917 1.917 0 000 4.217V19.55a1.917 1.917 0 001.917 1.917H12.65a.383.383 0 100-.767H1.917a1.153 1.153 0 01-1.15-1.15V7.667h21.466v6.516a.383.383 0 10.767 0V4.217A1.916 1.916 0 0021.083 2.3zm-4.216-.767a.767.767 0 011.533 0v2.3a.767.767 0 01-1.533 0v-2.3zm-6.134 0a.767.767 0 011.534 0v2.3a.767.767 0 01-1.534 0v-2.3zm-6.133 0a.767.767 0 011.533 0v2.3a.767.767 0 11-1.533 0v-2.3zM22.233 6.9H.767V4.217a1.153 1.153 0 011.15-1.15h1.916v.766a1.533 1.533 0 103.067 0v-.766h3.067v.766a1.533 1.533 0 103.066 0v-.766H16.1v.766a1.534 1.534 0 003.067 0v-.766h1.916a1.153 1.153 0 011.15 1.15V6.9z" fill="#082433"/><path d="M10.733 10.35a.767.767 0 00-.767-.767H8.433a.767.767 0 00-.767.767v1.15a.766.766 0 00.767.767h1.533a.766.766 0 00.767-.767v-1.15zm-2.3 1.15v-1.15h1.533v1.15H8.433zm-2.3-1.15a.767.767 0 00-.767-.767H3.833a.767.767 0 00-.767.767v1.15a.766.766 0 00.767.767h1.533a.767.767 0 00.767-.767v-1.15zm-2.3 1.15v-1.15h1.533v1.15H3.833zm15.334.767a.767.767 0 00.767-.767v-1.15a.767.767 0 00-.767-.767h-1.533a.767.767 0 00-.767.767v1.15a.767.767 0 00.767.767h1.533zm-1.533-1.917h1.533v1.15h-1.533v-1.15zm-6.901 3.45a.767.767 0 00-.767-.767H8.433a.767.767 0 00-.767.767v1.15a.767.767 0 00.767.767h1.533a.766.766 0 00.767-.767V13.8zm-2.3 1.15V13.8h1.533v1.15H8.433zm-2.3-1.15a.767.767 0 00-.767-.767H3.833a.767.767 0 00-.767.767v1.15a.767.767 0 00.767.767h1.533a.767.767 0 00.767-.767V13.8zm-2.3 1.15V13.8h1.533v1.15H3.833zm6.133 1.533H8.433a.767.767 0 00-.767.767v1.15a.767.767 0 00.767.767h1.533a.766.766 0 00.767-.767v-1.15a.767.767 0 00-.767-.767zM8.433 18.4v-1.15h1.533v1.15H8.433zm4.6-6.133h1.534a.767.767 0 00.766-.767v-1.15a.767.767 0 00-.766-.767h-1.534a.766.766 0 00-.766.767v1.15a.766.766 0 00.766.767zm0-1.917h1.534v1.15h-1.534v-1.15zm-.766 4.6a.767.767 0 00.766.767.383.383 0 000-.767V13.8h1.534a.383.383 0 100-.767h-1.534a.766.766 0 00-.766.767v1.15zm-6.901 1.533H3.833a.767.767 0 00-.767.767v1.15a.767.767 0 00.767.767h1.533a.767.767 0 00.767-.767v-1.15a.767.767 0 00-.767-.767zM3.833 18.4v-1.15h1.533v1.15H3.833z" fill="#082433"/><path d="M18.017 13.033A4.983 4.983 0 1023 18.017a4.99 4.99 0 00-4.983-4.984zm0 9.2a4.216 4.216 0 110-8.432 4.216 4.216 0 010 8.432z" fill="#082433"/><path d="M20.231 16.41l-2.981 2.98-1.355-1.355a.383.383 0 00-.542.542l1.626 1.627a.384.384 0 00.542 0l3.252-3.253a.383.383 0 00-.542-.542z" fill="#082433"/></svg>