<svg width="24" height="24" fill="none" xmlns="http://www.w3.org/2000/svg"><path d="M21.75 5.96a8.015 8.015 0 01-2.301.619 3.986 3.986 0 001.758-2.203 7.89 7.89 0 01-2.536.965 3.986 3.986 0 00-2.92-1.263 3.996 3.996 0 00-3.997 3.999c0 .309.038.618.099.916a11.358 11.358 0 01-8.24-4.184 3.968 3.968 0 00-.545 2.018c0 1.388.706 2.611 1.782 3.33a4.03 4.03 0 01-1.807-.508v.05a3.997 3.997 0 003.203 3.923c-.343.09-.697.135-1.052.136-.26 0-.506-.026-.755-.061a4.004 4.004 0 003.736 2.773 8.01 8.01 0 01-4.961 1.708c-.335 0-.645-.012-.966-.05a11.317 11.317 0 006.138 1.794c7.35 0 11.372-6.09 11.372-11.374 0-.174 0-.347-.011-.52A8.61 8.61 0 0021.75 5.96z" fill="#fff"/></svg>