<svg width="24" height="24" fill="none" xmlns="http://www.w3.org/2000/svg"><path d="M12 0C8.74 0 8.332.016 7.057.07c-1.283.063-2.15.262-2.915.558-.8.303-1.526.776-2.125 1.387A5.818 5.818 0 00.63 4.14C.333 4.905.135 5.772.072 7.054.014 8.33.002 8.737.002 11.998c0 3.262.016 3.669.07 4.945.063 1.278.261 2.149.558 2.914.303.8.776 1.526 1.387 2.125a5.818 5.818 0 002.125 1.387c.765.293 1.636.495 2.914.558 1.277.058 1.683.07 4.945.07 3.261 0 3.668-.016 4.944-.07 1.278-.063 2.149-.266 2.914-.558a5.886 5.886 0 002.125-1.387 5.788 5.788 0 001.386-2.125c.294-.765.496-1.636.56-2.914.057-1.277.069-1.683.069-4.945 0-3.261-.016-3.668-.07-4.944-.063-1.278-.266-2.154-.558-2.914a5.886 5.886 0 00-1.387-2.125A5.787 5.787 0 0019.859.628C19.094.332 18.223.133 16.945.07 15.668.012 15.262 0 12.001 0zm0 2.16c3.204 0 3.586.016 4.852.07 1.168.054 1.804.25 2.226.414.522.193.995.5 1.383.898.398.387.703.859.894 1.38.165.422.36 1.058.415 2.226.054 1.266.07 1.649.07 4.851 0 3.203-.016 3.586-.075 4.852-.063 1.168-.258 1.804-.422 2.226-.227.563-.48.957-.899 1.383-.39.396-.862.701-1.383.894-.417.165-1.062.36-2.234.415-1.273.054-1.648.07-4.86.07-3.211 0-3.585-.016-4.86-.075-1.167-.063-1.812-.258-2.234-.422a3.76 3.76 0 01-1.38-.9 3.603 3.603 0 01-.897-1.382c-.168-.417-.36-1.062-.422-2.234-.043-1.258-.063-1.648-.063-4.845 0-3.195.02-3.585.063-4.859.062-1.172.254-1.816.422-2.234.207-.571.476-.961.898-1.383.418-.418.81-.688 1.38-.9.421-.164 1.05-.359 2.222-.417 1.273-.046 1.648-.063 4.855-.063l.05.035zm0 3.68a6.158 6.158 0 00-5.691 8.518 6.158 6.158 0 008.049 3.334 6.158 6.158 0 001.999-10.048A6.157 6.157 0 0012 5.84zM12 16c-2.21 0-4-1.789-4-4 0-2.211 1.79-4 4-4 2.211 0 4 1.789 4 4 0 2.211-1.789 4-4 4zm7.85-10.406a1.442 1.442 0 01-2.773.553 1.44 1.44 0 112.773-.553z" fill="#fff"/></svg>