<svg width="23" height="23" fill="none" xmlns="http://www.w3.org/2000/svg"><path d="M11.35 8.445c.216.085.428-.123.356-.344-.492-1.517-2.274-2.083-3.931-.737-.872.708-1.2.858-1.208.862.575.575 1.231 2.502 2.664 2.716 1.578.286 2.975-1.267 1.832-1.977a4.878 4.878 0 00-2.585-.739 4.892 4.892 0 012.871.219zm7.145-1.081c-2.86-2.323-4.684 1.34-3.55.977a4.875 4.875 0 012.568-.115 4.92 4.92 0 00-3.795 1.802c.076-1.754.19-2.852.323-3.669.764-.026 1.782-.643 2.342-1.723.964-1.726.517-3.495.373-4.612-.753.734-4.045-.126-5.35 2.11-.576.988-.409 2.19.197 3.07.192.278.651.144.665-.194.056-1.47.788-2.58 2.152-3.195a6.634 6.634 0 00-1.222 2.598c-.322 1.43-.66 2.367-.783 6.923a.816.816 0 00.824.839.83.83 0 00.75-.526c.195-.47.514-.955 1.032-1.401a2.19 2.19 0 002.018.694c1.426-.213 2.092-2.145 2.663-2.716-.008-.004-.336-.154-1.207-.862zM22.7 13.04c-.895-.606-1.868-.174-2.315.084l-5.608 4.105h-3.284l-.82-.82h3.015c.907 0 1.923-.59 1.923-1.642 0-1.117-1.016-1.643-1.923-1.643h-1.13c-.84 0-1.82.075-2.512-.295a4.89 4.89 0 00-2.222-.525c-1.357 0-2.571.541-3.403 1.394L0 18.05l4.926 4.926 1.642-2.463h7.758a3.38 3.38 0 002.245-.853l6.185-5.494c.343-.306.324-.867-.056-1.125z" fill="#082433"/></svg>