<svg width="21" height="22" fill="none" xmlns="http://www.w3.org/2000/svg"><path d="M13.617 4.441a3.61 3.61 0 013.61 3.61v6.234a3.61 3.61 0 01-3.61 3.61H7.383a3.61 3.61 0 01-3.61-3.61V8.05a3.61 3.61 0 013.61-3.61h6.234zm0-1.312H7.383A4.937 4.937 0 002.46 8.05v6.234a4.937 4.937 0 004.922 4.922h6.234a4.937 4.937 0 004.922-4.922V8.05a4.937 4.937 0 00-4.922-4.922z" fill="#082433"/><path d="M14.789 5.918a.94.94 0 100 1.88.94.94 0 000-1.88zm-4.244 2.374a2.9 2.9 0 11.003 5.801 2.9 2.9 0 01-.003-5.801zm0-1.313a4.213 4.213 0 10.016 8.427 4.213 4.213 0 00-.016-8.427z" fill="#082433"/></svg>