<svg width="1000" height="2680" fill="none" xmlns="http://www.w3.org/2000/svg"><path opacity=".2" d="M36 2c429.5 16 1119.32 96.99 930.139 415.863-28.553 37.77-179.098 56.984-417.659 56.984-238.562 0-166.008 0-298.514 22.177C-55.77 548.193-53.775 935.946 120.42 988.342c93.525 28.128 57.015-7.196 387.6 28.128 64.975 6.95 287.575 7.2 413.19 101.41 78.89 82.3 145.85 356.84-109.528 440.94-255.383 84.1-667.555-27.01-750.225 69.41-82.67 96.43-74.989 353.87 128.563 401.63 291.267 68.34 666.323-9.24 697.599 131.64 20.044 90.28-18.317 139.47-84.522 203.32-120.531 79.16-204.053 183.84-204.053 314.68" stroke="#082433" stroke-width="3" stroke-dasharray="50 50"/></svg>