<svg width="47" height="35" fill="none" xmlns="http://www.w3.org/2000/svg"><path d="M35.212 25.278v-1.945a3.888 3.888 0 013.906-3.889 3.898 3.898 0 013.905 3.892v1.942h1.968c1.077 0 1.95.863 1.95 1.944v5.834A1.955 1.955 0 0144.991 35H33.244a1.942 1.942 0 01-1.95-1.944v-5.834c0-1.074.886-1.944 1.95-1.944h1.968zm1.956 0h3.9v-1.942a1.948 1.948 0 00-1.95-1.947c-1.085 0-1.95.863-1.95 1.944v1.945zm7.817-11.667H1.955v13.623c0 1.063.88 1.933 1.968 1.933h23.46v1.944H3.922C1.756 31.111 0 29.371 0 27.234V3.877C0 1.736 1.754 0 3.921 0H43.02c2.165 0 3.921 1.744 3.921 3.899v17.48h-1.956v-7.768zm0-7.778V3.9a1.96 1.96 0 00-1.965-1.955H3.92c-1.088 0-1.965.868-1.965 1.933v1.956h43.03zM1.955 7.778v3.889h43.03v-3.89H1.955zM33.25 33.056h11.735v-5.834h-11.74c.003 0 .005 1.945.005 5.834z" fill="#082433"/></svg>