<svg width="32" height="20" fill="none" xmlns="http://www.w3.org/2000/svg"><path d="M26.902 8.69a3.549 3.549 0 00-2.037-6.456 3.549 3.549 0 00-2.038 6.456 6.168 6.168 0 00-2.098 1.231 7.962 7.962 0 00-2.88-1.57A4.509 4.509 0 0020.02 4.5a4.497 4.497 0 00-4.5-4.5 4.5 4.5 0 00-2.326 8.352 8.028 8.028 0 00-2.85 1.55 6.203 6.203 0 00-2.073-1.206A3.549 3.549 0 006.235 2.24a3.549 3.549 0 00-2.038 6.456A6.233 6.233 0 000 14.586v.406c0 .013.012.025.025.025h7.527a8.28 8.28 0 00-.068 1.04v.419a3.273 3.273 0 003.274 3.274h9.54a3.273 3.273 0 003.274-3.274v-.419c0-.35-.025-.701-.068-1.04h7.577a.026.026 0 00.024-.024v-.407a6.257 6.257 0 00-4.203-5.896zm-4.604-2.91a2.569 2.569 0 012.566-2.567 2.569 2.569 0 012.567 2.566 2.575 2.575 0 01-2.517 2.567h-.099a2.563 2.563 0 01-2.517-2.567zM11.995 4.498A3.517 3.517 0 0115.51.985a3.517 3.517 0 013.515 3.514 3.52 3.52 0 01-3.311 3.508h-.408a3.52 3.52 0 01-3.31-3.508zM3.65 5.779a2.569 2.569 0 012.566-2.566 2.569 2.569 0 012.567 2.566 2.575 2.575 0 01-2.518 2.567h-.099A2.567 2.567 0 013.65 5.779zm4.074 8.247H.997A5.259 5.259 0 016.179 9.33h.074c1.28.006 2.45.48 3.354 1.25a8.08 8.08 0 00-1.883 3.446zm14.85 2.45a2.293 2.293 0 01-2.289 2.29h-9.54a2.293 2.293 0 01-2.289-2.29v-.419c0-3.822 3.053-6.948 6.85-7.059.068.006.142.006.21.006.067 0 .141 0 .209-.006 3.797.11 6.85 3.237 6.85 7.06v.418zm.733-2.45a8.06 8.06 0 00-1.864-3.422 5.23 5.23 0 013.384-1.274h.074a5.259 5.259 0 015.183 4.696h-6.777z" fill="#082433"/></svg>