<svg width="24" height="24" fill="none" xmlns="http://www.w3.org/2000/svg"><g clip-path="url(#clip0)" fill="#082433"><path d="M13.4 13.913L9.385 12.91a.398.398 0 01-.3-.333l-.34-2.503a.352.352 0 00-.697.095l.34 2.503c.062.45.386.81.826.92l2.651.664-2.653.663c-.439.11-.762.47-.823.92l-.71 5.208-.71-5.207a1.097 1.097 0 00-.824-.921l-2.653-.663 2.653-.664c.439-.11.762-.47.823-.92l.71-5.208.165 1.202a.352.352 0 00.696-.095l-.512-3.757a.352.352 0 00-.697 0l-1.058 7.763a.397.397 0 01-.298.333l-4.017 1.005a.352.352 0 000 .682L5.974 15.6c.159.04.275.17.298.334l1.058 7.762a.352.352 0 00.697 0l1.058-7.763a.397.397 0 01.298-.333l4.017-1.004a.352.352 0 000-.683zm5.634-7.891l-2.677-.643c-.058-.014-.102-.057-.11-.109L15.543.302a.352.352 0 00-.696 0l-.427 3.006a.352.352 0 00.696.1l.08-.557.357 2.518c.048.34.3.612.64.694l1.253.3-1.254.301a.834.834 0 00-.64.694l-.357 2.518-.358-2.518a.835.835 0 00-.64-.693l-1.253-.301 1.254-.301a.835.835 0 00.64-.694l.065-.459a.352.352 0 00-.696-.099l-.066.46c-.007.051-.05.094-.107.108l-2.678.643a.352.352 0 000 .684l2.678.642c.058.014.1.057.107.11l.706 4.967a.352.352 0 00.696 0l.706-4.968c.007-.052.05-.095.107-.109l2.679-.642a.352.352 0 000-.684zm3.006 12.4L19.9 17.9c-.02-.005-.034-.018-.036-.033L19.3 13.83a.352.352 0 00-.697 0l-.564 4.037c-.002.015-.016.028-.034.033l-2.143.522a.351.351 0 000 .683l2.143.523c.018.004.032.017.034.033a.352.352 0 00.696-.098.742.742 0 00-.564-.618l-.741-.181.741-.18a.742.742 0 00.564-.62l.216-1.547.217 1.547a.742.742 0 00.565.62l.74.18-.741.18a.742.742 0 00-.564.62l-.216 1.546-.02-.14a.352.352 0 00-.697.097l.368 2.63a.352.352 0 00.697 0l.564-4.036c.002-.016.016-.029.034-.033l2.143-.523a.352.352 0 000-.683z"/></g><defs><clipPath id="clip0"><path fill="#fff" d="M0 0h24v24H0z"/></clipPath></defs></svg>