<svg width="14" height="19" fill="none" xmlns="http://www.w3.org/2000/svg"><path d="M9.895 11.1c1.219 1.11 2.867 2.613 3.017 6.202H14v1.077H0v-1.077h1.088c.15-3.59 1.798-5.092 3.017-6.203.817-.745 1.28-1.201 1.28-1.91 0-.708-.463-1.164-1.28-1.909-1.219-1.111-2.867-2.614-3.017-6.203H0V0h14v1.077h-1.088c-.15 3.59-1.798 5.092-3.017 6.203-.817.745-1.28 1.201-1.28 1.91 0 .708.463 1.164 1.28 1.91zM6.462 5.152a2.722 2.722 0 01-.491-.15L2.672 3.638c.539 1.37 1.407 2.16 2.158 2.846.84.765 1.632 1.487 1.632 2.706V5.153zM9.17 6.484c.751-.685 1.619-1.476 2.158-2.846L8.029 5.003c-.16.066-.324.116-.49.15V9.19c0-1.219.792-1.941 1.63-2.706zM2.654 14.79c-.26.678-.44 1.497-.488 2.512h9.668c-.047-1.015-.227-1.834-.487-2.512H2.652z" fill="#082433"/></svg>