<svg width="21" height="22" fill="none" xmlns="http://www.w3.org/2000/svg"><path d="M14.264 5.698A3.212 3.212 0 0116.56 6.71s1.253-.246 1.945-.733c0 0-.174.964-1.327 1.703h.01c.089 0 .735-.017 1.752-.492 0 0-.195.556-1.526 1.614.08 2.504-1.158 7.132-5.742 8.779a9.247 9.247 0 01-3.142.563 8.808 8.808 0 01-4.84-1.423c.247.025.468.025.69.025 2.71 0 4.022-1.391 3.95-1.391h-.1c-2.297 0-2.856-2.199-2.856-2.199.184.111.397.164.612.151.277-.006.553-.046.82-.12-2.592-.613-2.495-3.1-2.495-3.1.35.233.76.362 1.181.37.07.001.138-.004.207-.016-2.368-1.874-.942-4.11-.942-4.11 2.668 3.096 5.947 3.206 6.398 3.206h.055c-.243-1.454.356-2.85 1.968-3.61a2.519 2.519 0 011.073-.23h.012zm5.752-2.077l-2.121 1.49c-.325.194-.675.34-1.04.434a4.292 4.292 0 00-2.598-.909 3.559 3.559 0 00-1.526.329c-1.506.707-2.421 1.927-2.603 3.392a8.08 8.08 0 01-4.56-2.721L4.633 4.55l-.77 1.203a4.133 4.133 0 00-.559 2.733l-.06 1.563c-.014.993.316 1.96.933 2.737l.164.64a4.294 4.294 0 001.372 2.115 6.104 6.104 0 01-1.334.14c-.195 0-.397-.008-.6-.024l-3.762-.313L3.06 17.58a9.878 9.878 0 005.471 1.626 10.337 10.337 0 003.508-.624 9.362 9.362 0 005.2-4.579 11.306 11.306 0 001.243-4.7c1.088-.937 1.386-1.534 1.467-1.762l.84-2.39-1.149.534.376-2.065z" fill="#082433"/></svg>