<svg width="16" height="16" fill="none" xmlns="http://www.w3.org/2000/svg"><path d="M8 .56c-4.42 0-8 3.297-8 7.366 0 4.07 3.58 7.367 8 7.367s8-3.297 8-7.367S12.42.56 8 .56zm-1.034.84a10.097 10.097 0 00-1.798 2.937 11.236 11.236 0 01-2.416-.901 7.357 7.357 0 014.214-2.037zM2.394 3.821c.828.433 1.702.763 2.601.987a9.742 9.742 0 00-.509 2.867H.842c.057-1.453.63-2.788 1.552-3.854zM.842 8.174h3.644c.026.987.199 1.947.51 2.867-.9.227-1.774.554-2.602.987C1.472 10.964.899 9.629.842 8.174zm1.91 4.24a11.49 11.49 0 012.416-.902 10.198 10.198 0 001.798 2.938c-1.654-.218-3.126-.958-4.214-2.036zm4.98 2.1a9.86 9.86 0 01-2.036-3.12 11.77 11.77 0 012.035-.223v3.344zm0-3.839c-.743.015-1.482.1-2.212.248a9.264 9.264 0 01-.493-2.75h2.704v2.502zm0-2.996H5.026a9.264 9.264 0 01.493-2.75c.726.15 1.469.233 2.211.248v2.502zm0-3a11.844 11.844 0 01-2.036-.224 9.75 9.75 0 012.035-3.12v3.344zm7.426 3H11.51a9.809 9.809 0 00-.508-2.867 11.913 11.913 0 002.608-.99c.918 1.066 1.49 2.401 1.548 3.857zm-1.91-4.24a11.25 11.25 0 01-2.422.901A10.203 10.203 0 009.03 1.4c1.658.217 3.13.96 4.218 2.038zM8.272 1.336a9.785 9.785 0 012.029 3.121c-.669.133-1.347.206-2.029.224V1.337zm0 3.84a12.04 12.04 0 002.205-.248c.304.893.47 1.819.493 2.747H8.272V5.177zm0 2.997h2.698a9.311 9.311 0 01-.493 2.746 12.59 12.59 0 00-2.205-.248V8.174zm0 3c.682.014 1.36.088 2.029.223a9.782 9.782 0 01-2.029 3.12v-3.344zm.762 3.28a10.204 10.204 0 001.795-2.942c.835.207 1.648.507 2.422.902a7.362 7.362 0 01-4.217 2.04zm4.572-2.423a11.886 11.886 0 00-2.608-.99 9.791 9.791 0 00.51-2.867h3.647c-.054 1.455-.627 2.79-1.549 3.857z" fill="#082433"/></svg>