<svg width="35" height="51" fill="none" xmlns="http://www.w3.org/2000/svg"><path d="M32.318 8.22C27.318.15 16.576-2.409 8.45 2.48c-8.24 5-10.912 15.74-5.967 23.982l1.704 3.125c-.17.796-.17 1.876.285 2.899.511 1.08 1.42 1.818 2.727 2.33-.113.795-.113 1.761.341 2.67.512 1.08 1.421 1.82 2.728 2.33-.113.796-.113 1.706.341 2.615.512 1.08 1.421 1.819 2.728 2.33-.114.796-.114 1.762.341 2.728.568 1.25 1.819 2.16 3.58 2.614l.74.17 4.375-7.16c.057-.114.284-.682.398-1.42 1.591-.455 2.67-1.308 3.182-2.501.455-.91.455-1.819.341-2.614 1.364-.512 2.273-1.25 2.785-2.33.455-1.023.455-2.046.341-2.842 1.307-.511 2.216-1.25 2.728-2.33.398-.796.454-1.648.398-2.387 3.92-6.08 2.614-13.866-.228-18.47zM30.613 9.3c2.33 3.75 3.467 9.774 1.023 14.945L24.76 12.71c-.682-1.137-1.478-1.364-1.99-1.364-1.193 0-1.931 1.137-2.045 1.364l-.853 1.591c-2.273 3.296-4.489 3.353-5.74 3.069l8.752-14.321c3.07 1.136 5.854 3.24 7.73 6.251zM6.347 31.69c-.455-.966-.057-2.16.057-2.5l3.523-5.74c.74.284 1.25.739 1.535 1.307.454.966.056 2.16-.057 2.5L7.88 33.054c-.795-.398-1.307-.796-1.534-1.364zm3.012 5.001c-.455-.966-.057-2.16.057-2.5l3.523-5.74c.74.284 1.25.739 1.535 1.307.397.91.113 1.989-.057 2.387l-3.58 5.853c-.682-.34-1.194-.738-1.478-1.307zm3.069 5.001c-.398-.91-.114-1.989.057-2.387l3.58-5.853c.739.284 1.25.739 1.534 1.25.455 1.023.057 2.217-.056 2.5l-3.467 5.74c-.853-.284-1.364-.681-1.648-1.25zm4.546 6.365c-.739-.284-1.25-.739-1.534-1.307-.455-.966-.057-2.216.057-2.5l3.523-5.74c.739.284 1.25.739 1.535 1.307.454 1.023.056 2.216-.057 2.5l-3.524 5.74zm13.355-19.72c-.284.569-.795.966-1.534 1.25l-4.66-7.672c-.853-1.42-1.535-2.5-1.705-2.841-.682-1.137-2.444-.17-2.444-.17l1.137 1.875 1.534 2.557 4.547 7.615c.113.228.568 1.478.056 2.558-.284.568-.795.966-1.534 1.307 0 0-4.49-7.445-5.228-8.638-.74-1.194-2.444-.17-2.444-.17l6.024 9.944s.625 1.421.114 2.558c-.228.511-.74.909-1.478 1.25-.057-.227-.114-.455-.227-.682-.512-1.08-1.421-1.819-2.728-2.33.113-.796.113-1.762-.341-2.728-.512-1.08-1.42-1.818-2.728-2.33.114-.796.114-1.705-.34-2.67-.512-1.08-1.422-1.82-2.729-2.33.114-.797.114-1.763-.34-2.672-.569-1.25-1.763-2.16-3.581-2.614l-.739-.17-3.75 6.194-1.024-1.819C-.245 18.28 2.142 8.788 9.416 4.355c3.58-2.273 7.672-2.785 11.48-1.932L11.29 18.108l.853.511c.056.057 5.057 3.126 9.433-3.296l.853-1.648c.057-.114.227-.284.284-.341.057.057.17.17.284.341l7.218 12.105c.113.227.625 1.534.113 2.557z" fill="#082433"/></svg>