<svg width="1000" height="2680" viewBox="0 0 1000 2680" fill="none" xmlns="http://www.w3.org/2000/svg">
<path opacity="0.2" d="M36 2C465.5 18 1155.32 98.9897 966.139 417.863C937.586 455.633 787.041 474.847 548.48 474.847C309.918 474.847 382.472 474.847 249.966 497.024C-55.7699 548.193 -53.775 935.946 120.42 988.342C213.945 1016.47 177.435 981.146 508.02 1016.47C572.995 1023.42 795.595 1023.67 921.21 1117.88C1000.1 1200.18 1067.06 1474.72 811.682 1558.82C556.299 1642.92 144.127 1531.81 61.4568 1628.23C-21.2135 1724.66 -13.5319 1982.1 190.02 2029.86C481.287 2098.2 856.343 2020.62 887.619 2161.5C907.663 2251.78 869.302 2300.97 803.097 2364.82C682.566 2443.98 599.044 2548.66 599.044 2679.5" stroke="#082433" stroke-width="3" stroke-dasharray="50 50"/>
</svg>
